<svg xmlns="http://www.w3.org/2000/svg" width="21.333" height="21.333" preserveAspectRatio="xMidYMid meet" version="1.0" viewBox="0 0 16 16"><metadata>Created by potrace 1.11, written by Peter Selinger 2001-2013</metadata><g fill="#000" stroke="none"><path d="M2175 3736 c-243 -48 -445 -204 -546 -421 -70 -151 -68 -132 -70 -900 -1 -653 -2 -693 -20 -750 -22 -68 -37 -101 -59 -129 -115 -146 -234 -203 -404 -194 -72 4 -96 10 -159 41 -125 62 -217 180 -246 315 -7 33 -11 181 -11 390 0 301 -2 341 -18 372 -54 108 -219 108 -275 0 -16 -32 -17 -67 -14 -430 3 -381 4 -397 26 -465 110 -332 385 -536 726 -537 137 0 221 19 340 77 90 44 141 82 221 165 l43 45 68 -66 c137 -134 271 -198 453 -219 156 -18 336 19 470 97 83 49 217 181 262 258 46 81 84 176 97 249 7 39 11 288 11 716 0 395 4 679 10 711 43 234 277 406 501 370 163 -27 304 -143 362 -299 20 -53 21 -81 26 -434 6 -358 7 -378 26 -404 70 -93 216 -81 266 23 20 41 20 54 16 425 -3 327 -6 392 -21 443 -87 294 -311 499 -601 550 -110 19 -160 19 -269 0 -156 -27 -280 -91 -399 -206 -63 -60 -73 -67 -87 -54 -8 8 -45 43 -81 78 -76 73 -188 135 -299 167 -97 27 -252 34 -345 16z m211 -307 c127 -23 260 -116 318 -223 56 -101 56 -104 56 -822 0 -630 -1 -665 -20 -725 -38 -125 -117 -217 -238 -277 -64 -31 -85 -36 -161 -40 -212 -10 -383 106 -450 306 -20 60 -21 80 -21 736 0 634 1 678 19 735 48 154 176 272 334 306 79 17 90 17 163 4z" transform="translate(0.000000,16.000000) scale(0.003426,-0.003426)"/></g></svg>